Hind Jalandhar-Light.ufo
<glyph name="exclam" format="1">
  <advance width="246"/>
  <unicode hex="0021"/>
  <outline>
    <contour>
      <point x="111" y="272" type="curve" smooth="yes"/>
      <point x="115" y="148" type="line"/>
      <point x="132" y="148" type="line"/>
      <point x="136" y="272" type="line" smooth="yes"/>
      <point x="141" y="423"/>
      <point x="154" y="524"/>
      <point x="154" y="542" type="curve"/>
      <point x="154" y="559"/>
      <point x="145" y="573"/>
      <point x="124" y="573" type="curve"/>
      <point x="102" y="573"/>
      <point x="93" y="559"/>
      <point x="93" y="542" type="curve"/>
      <point x="93" y="524"/>
      <point x="106" y="424"/>
    </contour>
    <component base="period"/>
  </outline>
</glyph>
<glyph name="period" format="1">
  <advance width="246"/>
  <unicode hex="002E"/>
  <outline>
    <contour>
      <point x="92" y="44"/>
      <point x="74" y="31"/>
      <point x="74" y="12" type="curve"/>
      <point x="74" y="-6"/>
      <point x="92" y="-20"/>
      <point x="123" y="-20" type="curve"/>
      <point x="155" y="-20"/>
      <point x="172" y="-6"/>
      <point x="172" y="12" type="curve"/>
      <point x="172" y="31"/>
      <point x="155" y="44"/>
      <point x="123" y="44" type="curve"/>
    </contour>
  </outline>
</glyph>
<glyph name="zero" format="1">
  <advance width="801"/>
  <unicode hex="0030"/>
  <outline>
    <contour>
      <point x="581" y="-20"/>
      <point x="741" y="65"/>
      <point x="741" y="236" type="curve"/>
      <point x="741" y="400"/>
      <point x="581" y="491"/>
      <point x="400" y="491" type="curve"/>
      <point x="219" y="491"/>
      <point x="59" y="400"/>
      <point x="59" y="236" type="curve"/>
      <point x="59" y="65"/>
      <point x="219" y="-20"/>
      <point x="400" y="-20" type="curve"/>
    </contour>
    <contour>
      <point x="231" y="3"/>
      <point x="85" y="82"/>
      <point x="85" y="236" type="curve"/>
      <point x="85" y="382"/>
      <point x="231" y="468"/>
      <point x="400" y="468" type="curve"/>
      <point x="570" y="468"/>
      <point x="716" y="382"/>
      <point x="716" y="236" type="curve"/>
      <point x="716" y="82"/>
      <point x="570" y="3"/>
      <point x="400" y="3" type="curve"/>
    </contour>
    <contour>
      <point x="371" y="265"/>
      <point x="354" y="253"/>
      <point x="354" y="234" type="curve"/>
      <point x="354" y="217"/>
      <point x="371" y="204"/>
      <point x="401" y="204" type="curve"/>
      <point x="432" y="204"/>
      <point x="448" y="217"/>
      <point x="448" y="234" type="curve"/>
      <point x="448" y="253"/>
      <point x="432" y="265"/>
      <point x="401" y="265" type="curve"/>
    </contour>
  </outline>
</glyph>
<glyph name="two" format="1">
  <advance width="736"/>
  <unicode hex="0032"/>
  <outline>
    <contour>
      <point x="652" y="0" type="line"/>
      <point x="652" y="172" type="line"/>
      <point x="628" y="172" type="line"/>
      <point x="628" y="23" type="line"/>
      <point x="59" y="23" type="line"/>
      <point x="59" y="0" type="line"/>
    </contour>
    <contour>
      <point x="635" y="450"/>
      <point x="510" y="490"/>
      <point x="388" y="490" type="curve" smooth="yes"/>
      <point x="252" y="490"/>
      <point x="135" y="441"/>
      <point x="64" y="358" type="curve"/>
      <point x="81" y="343" type="line"/>
      <point x="152" y="421"/>
      <point x="263" y="467"/>
      <point x="388" y="467" type="curve" smooth="yes"/>
      <point x="506" y="467"/>
      <point x="609" y="430"/>
      <point x="610" y="357" type="curve" smooth="yes"/>
      <point x="611" y="276"/>
      <point x="515" y="253"/>
      <point x="344" y="221" type="curve" smooth="yes"/>
      <point x="146" y="184"/>
      <point x="59" y="133"/>
      <point x="59" y="17" type="curve"/>
      <point x="84" y="17" type="line"/>
      <point x="84" y="118"/>
      <point x="157" y="163"/>
      <point x="354" y="199" type="curve" smooth="yes"/>
      <point x="528" y="231"/>
      <point x="635" y="260"/>
      <point x="635" y="356" type="curve" smooth="yes"/>
    </contour>
  </outline>
</glyph>
<glyph name="I" format="1">
  <advance width="521"/>
  <unicode hex="0049"/>
  <outline>
    <contour>
      <point x="465" y="0" type="line" smooth="yes"/>
      <point x="465" y="23" type="line" smooth="yes"/>
      <point x="56" y="23" type="line" smooth="yes"/>
      <point x="56" y="0" type="line" smooth="yes"/>
    </contour>
    <contour>
      <point x="248" y="477" type="line" smooth="yes"/>
      <point x="248" y="13" type="line" smooth="yes"/>
      <point x="273" y="13" type="line" smooth="yes"/>
      <point x="273" y="477" type="line" smooth="yes"/>
    </contour>
    <contour>
      <point x="56" y="490" type="line" smooth="yes"/>
      <point x="56" y="467" type="line" smooth="yes"/>
      <point x="465" y="467" type="line" smooth="yes"/>
      <point x="465" y="490" type="line" smooth="yes"/>
    </contour>
    <contour>
      <point x="455.0" y="11.0" type="move" name="ogonek"/>
    </contour>
    <contour>
      <point x="261.0" y="0.0" type="move" name="bottom"/>
    </contour>
    <contour>
      <point x="261.0" y="490.0" type="move" name="top"/>
    </contour>
  </outline>
</glyph>
<glyph name="P" format="1">
  <advance width="923"/>
  <unicode hex="0050"/>
  <outline>
    <contour>
      <point x="263" y="13" type="line"/>
      <point x="263" y="477" type="line"/>
      <point x="238" y="477" type="line"/>
      <point x="238" y="13" type="line"/>
    </contour>
    <contour>
      <point x="455" y="0" type="line"/>
      <point x="455" y="23" type="line"/>
      <point x="56" y="23" type="line"/>
      <point x="56" y="0" type="line"/>
    </contour>
    <contour>
      <point x="694" y="193" type="line" smooth="yes"/>
      <point x="806" y="193"/>
      <point x="874" y="258"/>
      <point x="874" y="340" type="curve" smooth="yes"/>
      <point x="874" y="431"/>
      <point x="804" y="490"/>
      <point x="694" y="490" type="curve" smooth="yes"/>
      <point x="56" y="490" type="line"/>
      <point x="56" y="467" type="line"/>
      <point x="701" y="467" type="line" smooth="yes"/>
      <point x="790" y="467"/>
      <point x="849" y="415"/>
      <point x="849" y="340" type="curve" smooth="yes"/>
      <point x="849" y="267"/>
      <point x="787" y="216"/>
      <point x="701" y="216" type="curve" smooth="yes"/>
      <point x="251" y="216" type="line"/>
      <point x="251" y="193" type="line"/>
    </contour>
    <contour>
      <point x="462.0" y="490.0" type="move" name="top"/>
    </contour>
    <contour>
      <point x="462.0" y="0.0" type="move" name="bottom"/>
    </contour>
  </outline>
</glyph>
<glyph name="V" format="1">
  <advance width="951"/>
  <unicode hex="0056"/>
  <outline>
    <contour>
      <point x="785" y="477" type="line"/>
      <point x="476" y="12" type="line"/>
      <point x="168" y="477" type="line"/>
      <point x="137" y="477" type="line"/>
      <point x="475" y="-31" type="line"/>
      <point x="814" y="477" type="line"/>
    </contour>
    <contour>
      <point x="-18" y="490" type="line"/>
      <point x="-18" y="467" type="line"/>
      <point x="319" y="467" type="line"/>
      <point x="319" y="490" type="line"/>
    </contour>
    <contour>
      <point x="631" y="490" type="line"/>
      <point x="631" y="467" type="line"/>
      <point x="968" y="467" type="line"/>
      <point x="968" y="490" type="line"/>
    </contour>
    <contour>
      <point x="476.0" y="490.0" type="move" name="top"/>
    </contour>
    <contour>
      <point x="476.0" y="0.0" type="move" name="bottom"/>
    </contour>
  </outline>
</glyph>
<glyph name="Z" format="1">
  <advance width="763"/>
  <unicode hex="005A"/>
  <outline>
    <contour>
      <point x="686" y="183" type="line"/>
      <point x="711" y="183" type="line"/>
      <point x="711" y="0" type="line"/>
      <point x="56" y="0" type="line"/>
      <point x="56" y="13" type="line"/>
      <point x="638" y="458" type="line"/>
      <point x="668" y="469" type="line"/>
      <point x="668" y="470" type="line"/>
      <point x="638" y="467" type="line"/>
      <point x="78" y="467" type="line"/>
      <point x="78" y="307" type="line"/>
      <point x="53" y="307" type="line"/>
      <point x="53" y="490" type="line"/>
      <point x="707" y="490" type="line"/>
      <point x="707" y="477" type="line"/>
      <point x="125" y="32" type="line"/>
      <point x="95" y="21" type="line"/>
      <point x="95" y="20" type="line"/>
      <point x="125" y="23" type="line"/>
      <point x="686" y="23" type="line"/>
    </contour>
    <contour>
      <point x="382.0" y="490.0" type="move" name="top"/>
    </contour>
    <contour>
      <point x="382.0" y="0.0" type="move" name="bottom"/>
    </contour>
  </outline>
</glyph>
<glyph name="grave" format="1">
  <advance width="480"/>
  <unicode hex="0060"/>
  <outline>
    <contour>
      <point x="394" y="513" type="line"/>
      <point x="90" y="634" type="line"/>
      <point x="101" y="662" type="line"/>
      <point x="400" y="531" type="line"/>
    </contour>
    <contour>
      <point x="262.0" y="421.0" type="move" name="_top"/>
    </contour>
  </outline>
</glyph>
<glyph name="d" format="1">
  <advance width="827"/>
  <unicode hex="0064"/>
  <outline>
    <contour>
      <point x="678" y="537" type="line"/>
      <point x="678" y="560" type="line"/>
      <point x="479" y="560" type="line"/>
      <point x="479" y="537" type="line"/>
    </contour>
    <contour>
      <point x="606" y="334"/>
      <point x="502" y="376"/>
      <point x="372" y="375" type="curve"/>
      <point x="220" y="376"/>
      <point x="70" y="300"/>
      <point x="70" y="164" type="curve"/>
      <point x="70" y="48"/>
      <point x="165" y="-20"/>
      <point x="308" y="-20" type="curve"/>
      <point x="438" y="-20"/>
      <point x="560" y="44"/>
      <point x="676" y="127" type="curve"/>
      <point x="676" y="151" type="line"/>
      <point x="551" y="62"/>
      <point x="422" y="3"/>
      <point x="308" y="3" type="curve"/>
      <point x="175" y="3"/>
      <point x="95" y="69"/>
      <point x="95" y="164" type="curve"/>
      <point x="95" y="283"/>
      <point x="230" y="353"/>
      <point x="372" y="352" type="curve"/>
      <point x="491" y="353"/>
      <point x="605" y="310"/>
      <point x="678" y="270" type="curve"/>
      <point x="678" y="293" type="line"/>
    </contour>
    <contour>
      <point x="662" y="18"/>
      <point x="699" y="-20"/>
      <point x="750" y="-20" type="curve" smooth="yes"/>
      <point x="781" y="-20"/>
      <point x="808" y="-8"/>
      <point x="832" y="9" type="curve"/>
      <point x="822" y="29" type="line"/>
      <point x="799" y="12"/>
      <point x="778" y="3"/>
      <point x="751" y="3" type="curve" smooth="yes"/>
      <point x="718" y="3"/>
      <point x="687" y="28"/>
      <point x="687" y="84" type="curve" smooth="yes"/>
      <point x="687" y="560" type="line"/>
      <point x="662" y="560" type="line"/>
      <point x="662" y="84" type="line" smooth="yes"/>
    </contour>
    <contour>
      <point x="414.0" y="-20.0" type="move" name="bottom"/>
    </contour>
    <contour>
      <point x="414.0" y="387.0" type="move" name="top"/>
    </contour>
    <contour>
      <point x="807.0" y="357.0" type="move" name="topright"/>
    </contour>
    <contour>
      <point x="414.0" y="179.0" type="move" name="center"/>
    </contour>
  </outline>
</glyph>
<glyph name="h" format="1">
  <advance width="886"/>
  <unicode hex="0068"/>
  <outline>
    <contour>
      <point x="190" y="0" type="line"/>
      <point x="215" y="0" type="line"/>
      <point x="215" y="560" type="line"/>
      <point x="190" y="560" type="line"/>
    </contour>
    <contour>
      <point x="10" y="560" type="line"/>
      <point x="10" y="537" type="line"/>
      <point x="215" y="537" type="line"/>
      <point x="215" y="560" type="line"/>
    </contour>
    <contour>
      <point x="10" y="0" type="line"/>
      <point x="398" y="0" type="line"/>
      <point x="398" y="23" type="line"/>
      <point x="10" y="23" type="line"/>
    </contour>
    <contour>
      <point x="389" y="377"/>
      <point x="266" y="273"/>
      <point x="202" y="221" type="curve"/>
      <point x="202" y="198" type="line"/>
      <point x="266" y="249"/>
      <point x="389" y="354"/>
      <point x="525" y="354" type="curve" smooth="yes"/>
      <point x="671" y="354"/>
      <point x="705" y="247"/>
      <point x="705" y="145" type="curve"/>
      <point x="705" y="0" type="line"/>
      <point x="730" y="0" type="line"/>
      <point x="730" y="145" type="line"/>
      <point x="730" y="267"/>
      <point x="681" y="377"/>
      <point x="525" y="377" type="curve" smooth="yes"/>
    </contour>
    <contour>
      <point x="523" y="23" type="line"/>
      <point x="523" y="0" type="line"/>
      <point x="891" y="0" type="line"/>
      <point x="891" y="23" type="line"/>
    </contour>
    <contour>
      <point x="443.0" y="179.0" type="move" name="center"/>
    </contour>
    <contour>
      <point x="443.0" y="0.0" type="move" name="bottom"/>
    </contour>
    <contour>
      <point x="443.0" y="387.0" type="move" name="top"/>
    </contour>
  </outline>
</glyph>
<glyph name="r" format="1">
  <advance width="690"/>
  <unicode hex="0072"/>
  <outline>
    <contour>
      <point x="472" y="376"/>
      <point x="356" y="315"/>
      <point x="234" y="221" type="curve"/>
      <point x="234" y="198" type="line"/>
      <point x="366" y="297"/>
      <point x="487" y="353"/>
      <point x="615" y="353" type="curve"/>
      <point x="615" y="222" type="line"/>
      <point x="640" y="222" type="line"/>
      <point x="640" y="375" type="line"/>
      <point x="615" y="376" type="line"/>
    </contour>
    <contour>
      <point x="222" y="0" type="line"/>
      <point x="247" y="0" type="line"/>
      <point x="247" y="357" type="line"/>
      <point x="222" y="357" type="line"/>
    </contour>
    <contour>
      <point x="40" y="23" type="line"/>
      <point x="40" y="0" type="line"/>
      <point x="408" y="0" type="line"/>
      <point x="408" y="23" type="line"/>
    </contour>
    <contour>
      <point x="40" y="357" type="line"/>
      <point x="40" y="334" type="line"/>
      <point x="247" y="334" type="line"/>
      <point x="247" y="357" type="line"/>
    </contour>
    <contour>
      <point x="345.0" y="357.0" type="move" name="top"/>
    </contour>
    <contour>
      <point x="345.0" y="0.0" type="move" name="bottom"/>
    </contour>
  </outline>
</glyph>
<glyph name="s" format="1">
  <advance width="683"/>
  <unicode hex="0073"/>
  <outline>
    <contour>
      <point x="571" y="137"/>
      <point x="503" y="152"/>
      <point x="335" y="163" type="curve" smooth="yes"/>
      <point x="167" y="174"/>
      <point x="89" y="204"/>
      <point x="89" y="272" type="curve" smooth="yes"/>
      <point x="89" y="332"/>
      <point x="155" y="377"/>
      <point x="291" y="377" type="curve" smooth="yes"/>
      <point x="414" y="377"/>
      <point x="523" y="323"/>
      <point x="572" y="260" type="curve"/>
      <point x="557" y="267" type="line"/>
      <point x="557" y="376" type="line"/>
      <point x="579" y="376" type="line"/>
      <point x="579" y="230" type="line"/>
      <point x="506" y="316"/>
      <point x="396" y="355"/>
      <point x="286" y="355" type="curve" smooth="yes"/>
      <point x="184" y="355"/>
      <point x="113" y="323"/>
      <point x="113" y="273" type="curve" smooth="yes"/>
      <point x="113" y="222"/>
      <point x="176" y="199"/>
      <point x="335" y="188" type="curve" smooth="yes"/>
      <point x="510" y="176"/>
      <point x="595" y="158"/>
      <point x="595" y="81" type="curve" smooth="yes"/>
      <point x="595" y="14"/>
      <point x="509" y="-20"/>
      <point x="380" y="-20" type="curve" smooth="yes"/>
      <point x="257" y="-20"/>
      <point x="135" y="33"/>
      <point x="88" y="96" type="curve"/>
      <point x="104" y="89" type="line"/>
      <point x="104" y="-20" type="line"/>
      <point x="82" y="-20" type="line"/>
      <point x="82" y="126" type="line"/>
      <point x="151" y="40"/>
      <point x="279" y="2"/>
      <point x="385" y="2" type="curve" smooth="yes"/>
      <point x="475" y="2"/>
      <point x="571" y="22"/>
      <point x="571" y="80" type="curve" smooth="yes"/>
    </contour>
    <contour>
      <point x="342.0" y="387.0" type="move" name="top"/>
    </contour>
    <contour>
      <point x="362.0" y="-20.0" type="move" name="bottom"/>
    </contour>
  </outline>
</glyph>
<glyph name="y" format="1">
  <advance width="741"/>
  <unicode hex="0079"/>
  <outline>
    <contour>
      <point x="148" y="348" type="line"/>
      <point x="120" y="348" type="line"/>
      <point x="364" y="-44" type="line"/>
      <point x="379" y="-20" type="line"/>
    </contour>
    <contour>
      <point x="7" y="357" type="line"/>
      <point x="7" y="334" type="line"/>
      <point x="280" y="334" type="line"/>
      <point x="280" y="357" type="line"/>
    </contour>
    <contour>
      <point x="461" y="357" type="line"/>
      <point x="461" y="334" type="line"/>
      <point x="734" y="334" type="line"/>
      <point x="734" y="357" type="line"/>
    </contour>
    <contour>
      <point x="613" y="343" type="line"/>
      <point x="585" y="343" type="line"/>
      <point x="345" y="-49" type="line" smooth="yes"/>
      <point x="297" y="-128"/>
      <point x="253" y="-170"/>
      <point x="183" y="-170" type="curve" smooth="yes"/>
      <point x="127" y="-170"/>
      <point x="85" y="-153"/>
      <point x="35" y="-129" type="curve"/>
      <point x="27" y="-151" type="line"/>
      <point x="79" y="-173"/>
      <point x="118" y="-193"/>
      <point x="182" y="-193" type="curve" smooth="yes"/>
      <point x="269" y="-193"/>
      <point x="320" y="-134"/>
      <point x="373" y="-48" type="curve" smooth="yes"/>
    </contour>
    <contour>
      <point x="371.0" y="357.0" type="move" name="top"/>
    </contour>
    <contour>
      <point x="371.0" y="0.0" type="move" name="bottom"/>
    </contour>
  </outline>
</glyph>
<glyph name="acute" format="1">
  <advance width="479"/>
  <unicode hex="00B4"/>
  <outline>
    <contour>
      <point x="389" y="662" type="line"/>
      <point x="400" y="634" type="line"/>
      <point x="96" y="513" type="line"/>
      <point x="90" y="531" type="line"/>
    </contour>
    <contour>
      <point x="213.0" y="421.0" type="move" name="_top"/>
    </contour>
  </outline>
</glyph>
<glyph name="Eth" format="1">
  <advance width="959"/>
  <unicode hex="00D0"/>
  <outline>
    <contour>
      <point x="80" y="256" type="line"/>
      <point x="80" y="234" type="line"/>
      <point x="641" y="234" type="line"/>
      <point x="641" y="256" type="line"/>
    </contour>
    <component base="D"/>
  </outline>
</glyph>
<glyph name="tilde" format="1">
  <advance width="563"/>
  <unicode hex="02DC"/>
  <outline>
    <contour>
      <point x="461" y="556"/>
      <point x="426" y="529"/>
      <point x="388" y="529" type="curve" smooth="yes"/>
      <point x="354" y="529"/>
      <point x="323" y="550"/>
      <point x="291" y="573" type="curve" smooth="yes"/>
      <point x="256" y="597"/>
      <point x="223" y="623"/>
      <point x="178" y="623" type="curve" smooth="yes"/>
      <point x="118" y="623"/>
      <point x="81" y="577"/>
      <point x="70" y="509" type="curve"/>
      <point x="91" y="505" type="line"/>
      <point x="102" y="573"/>
      <point x="137" y="601"/>
      <point x="176" y="601" type="curve" smooth="yes"/>
      <point x="211" y="601"/>
      <point x="240" y="580"/>
      <point x="272" y="557" type="curve" smooth="yes"/>
      <point x="307" y="533"/>
      <point x="342" y="507"/>
      <point x="386" y="507" type="curve" smooth="yes"/>
      <point x="445" y="507"/>
      <point x="482" y="552"/>
      <point x="493" y="619" type="curve"/>
      <point x="472" y="623" type="line"/>
    </contour>
    <contour>
      <point x="291.0" y="391.0" type="move" name="_top"/>
    </contour>
  </outline>
</glyph>
<glyph name="gravecomb" format="1">
  <advance width="480"/>
  <unicode hex="0300"/>
  <outline>
    <contour>
      <point x="394" y="513" type="line"/>
      <point x="90" y="634" type="line"/>
      <point x="101" y="662" type="line"/>
      <point x="400" y="531" type="line"/>
    </contour>
    <contour>
      <point x="262.0" y="421.0" type="move" name="_top"/>
    </contour>
  </outline>
</glyph>
<glyph name="acutecomb" format="1">
  <advance width="479"/>
  <unicode hex="0301"/>
  <outline>
    <contour>
      <point x="389" y="662" type="line"/>
      <point x="400" y="634" type="line"/>
      <point x="96" y="513" type="line"/>
      <point x="90" y="531" type="line"/>
    </contour>
    <contour>
      <point x="213.0" y="421.0" type="move" name="_top"/>
    </contour>
  </outline>
</glyph>
<glyph name="ringcomb" format="1">
  <advance width="411"/>
  <unicode hex="030A"/>
  <outline>
    <contour>
      <point x="131" y="684"/>
      <point x="70" y="642"/>
      <point x="70" y="579" type="curve"/>
      <point x="70" y="519"/>
      <point x="131" y="473"/>
      <point x="206" y="473" type="curve"/>
      <point x="285" y="473"/>
      <point x="341" y="519"/>
      <point x="341" y="579" type="curve"/>
      <point x="341" y="642"/>
      <point x="285" y="684"/>
      <point x="206" y="684" type="curve"/>
    </contour>
    <contour>
      <point x="273" y="662"/>
      <point x="318" y="627"/>
      <point x="318" y="579" type="curve"/>
      <point x="318" y="533"/>
      <point x="273" y="495"/>
      <point x="206" y="495" type="curve"/>
      <point x="142" y="495"/>
      <point x="93" y="533"/>
      <point x="93" y="579" type="curve"/>
      <point x="93" y="627"/>
      <point x="142" y="662"/>
      <point x="206" y="662" type="curve"/>
    </contour>
    <contour>
      <point x="206.0" y="391.0" type="move" name="_top"/>
    </contour>
  </outline>
</glyph>
<glyph name="grAdakbindi" format="1">
  <advance width="0"/>
  <unicode hex="0A01"/>
  <outline>
    <contour>
      <point x="-43" y="782"/>
      <point x="-65" y="739"/>
      <point x="-130" y="739" type="curve" smooth="yes"/>
      <point x="-195" y="739"/>
      <point x="-217" y="782"/>
      <point x="-217" y="835" type="curve"/>
      <point x="-279" y="835" type="line"/>
      <point x="-279" y="734"/>
      <point x="-213" y="687"/>
      <point x="-130" y="687" type="curve" smooth="yes"/>
      <point x="-47" y="687"/>
      <point x="19" y="734"/>
      <point x="19" y="835" type="curve"/>
      <point x="-43" y="835" type="line"/>
    </contour>
    <contour>
      <point x="-176" y="818"/>
      <point x="-157" y="799"/>
      <point x="-130" y="799" type="curve" smooth="yes"/>
      <point x="-103" y="799"/>
      <point x="-82" y="818"/>
      <point x="-82" y="845" type="curve" smooth="yes"/>
      <point x="-82" y="871"/>
      <point x="-103" y="892"/>
      <point x="-130" y="892" type="curve" smooth="yes"/>
      <point x="-157" y="892"/>
      <point x="-176" y="871"/>
      <point x="-176" y="845" type="curve" smooth="yes"/>
    </contour>
    <contour>
      <point x="-130" y="635" type="move" name="_top.addak"/>
    </contour>
  </outline>
</glyph>
<glyph name="grBindi" format="1">
  <advance width="0"/>
  <unicode hex="0A02"/>
  <outline>
    <contour>
      <point x="-175" y="747"/>
      <point x="-156" y="728"/>
      <point x="-129" y="728" type="curve" smooth="yes"/>
      <point x="-102" y="728"/>
      <point x="-81" y="747"/>
      <point x="-81" y="774" type="curve" smooth="yes"/>
      <point x="-81" y="800"/>
      <point x="-102" y="821"/>
      <point x="-129" y="821" type="curve" smooth="yes"/>
      <point x="-156" y="821"/>
      <point x="-175" y="800"/>
      <point x="-175" y="774" type="curve" smooth="yes"/>
    </contour>
    <contour>
      <point x="-129" y="635" type="move" name="_top.bindi"/>
    </contour>
  </outline>
</glyph>
<glyph name="grA" format="1">
  <advance width="695"/>
  <unicode hex="0A05"/>
  <outline>
    <contour>
      <point x="533" y="0" type="line"/>
      <point x="595" y="0" type="line"/>
      <point x="595" y="580" type="line"/>
      <point x="715" y="580" type="line"/>
      <point x="715" y="635" type="line"/>
      <point x="533" y="635" type="line"/>
    </contour>
    <contour>
      <point x="46" y="580" type="line"/>
      <point x="81" y="580"/>
      <point x="92" y="558"/>
      <point x="92" y="510" type="curve" smooth="yes"/>
      <point x="92" y="444" type="line"/>
      <point x="68" y="436"/>
      <point x="50" y="415"/>
      <point x="50" y="392" type="curve" smooth="yes"/>
      <point x="50" y="369"/>
      <point x="62" y="344"/>
      <point x="75" y="316" type="curve" smooth="yes"/>
      <point x="99" y="266" type="line"/>
      <point x="154" y="266" type="line"/>
      <point x="154" y="396" type="line"/>
      <point x="270" y="451" type="line" smooth="yes"/>
      <point x="306" y="468"/>
      <point x="324" y="464"/>
      <point x="324" y="410" type="curve" smooth="yes"/>
      <point x="324" y="303" type="line"/>
      <point x="300" y="295"/>
      <point x="282" y="274"/>
      <point x="282" y="251" type="curve" smooth="yes"/>
      <point x="282" y="228"/>
      <point x="294" y="203"/>
      <point x="307" y="175" type="curve" smooth="yes"/>
      <point x="331" y="125" type="line"/>
      <point x="384" y="125" type="line"/>
      <point x="384" y="253" type="line"/>
      <point x="537" y="331" type="line"/>
      <point x="537" y="395" type="line"/>
      <point x="384" y="319" type="line"/>
      <point x="384" y="428" type="line" smooth="yes"/>
      <point x="384" y="516"/>
      <point x="333" y="544"/>
      <point x="246" y="503" type="curve" smooth="yes"/>
      <point x="154" y="460" type="line"/>
      <point x="154" y="524" type="line" smooth="yes"/>
      <point x="154" y="596"/>
      <point x="126" y="635"/>
      <point x="55" y="635" type="curve"/>
      <point x="-20" y="635" type="line"/>
      <point x="-20" y="580" type="line"/>
    </contour>
    <contour>
      <point x="564" y="635" type="move" name="top.addak"/>
    </contour>
    <contour>
      <point x="564" y="635" type="move" name="top"/>
    </contour>
    <contour>
      <point x="564" y="635" type="move" name="top.bindi"/>
    </contour>
    <contour>
      <point x="564" y="635" type="move" name="top.tippi"/>
    </contour>
  </outline>
</glyph>
<glyph name="grAA" format="1">
  <advance width="937"/>
  <unicode hex="0A06"/>
  <outline>
    <component base="grA"/>
    <component base="grmAA" xOffset="695"/>
    <contour>
      <point x="695" y="635" type="move" name="top.addak"/>
    </contour>
    <contour>
      <point x="695" y="635" type="move" name="top"/>
    </contour>
    <contour>
      <point x="695" y="635" type="move" name="top.bindi"/>
    </contour>
    <contour>
      <point x="695" y="635" type="move" name="top.tippi"/>
    </contour>
  </outline>
</glyph>
<glyph name="grOO" format="1">
  <advance width="587"/>
  <unicode hex="0A13"/>
  <outline>
    <contour>
      <point x="-20" y="580" type="line"/>
      <point x="-20" y="635" type="line"/>
      <point x="607" y="635" type="line"/>
      <point x="607" y="580" type="line"/>
    </contour>
    <contour>
      <point x="534" y="480" type="line"/>
      <point x="534" y="408"/>
      <point x="486" y="353"/>
      <point x="427" y="335" type="curve"/>
      <point x="99" y="335" type="line"/>
      <point x="99" y="370" type="line"/>
      <point x="349" y="370" type="line" smooth="yes"/>
      <point x="443" y="370"/>
      <point x="472" y="422"/>
      <point x="472" y="479" type="curve"/>
      <point x="472" y="586" type="line"/>
      <point x="534" y="586" type="line"/>
    </contour>
    <contour>
      <point x="461" y="848"/>
      <point x="495" y="840"/>
      <point x="534" y="830" type="curve"/>
      <point x="534" y="773" type="line"/>
      <point x="487" y="786"/>
      <point x="453" y="791"/>
      <point x="404" y="791" type="curve" smooth="yes"/>
      <point x="202" y="791"/>
      <point x="114" y="628"/>
      <point x="114" y="410" type="curve" smooth="yes"/>
      <point x="114" y="233"/>
      <point x="192" y="92"/>
      <point x="333" y="92" type="curve" smooth="yes"/>
      <point x="427" y="92"/>
      <point x="473" y="137"/>
      <point x="473" y="212" type="curve" smooth="yes"/>
      <point x="473" y="288"/>
      <point x="415" y="315"/>
      <point x="316" y="315" type="curve" smooth="yes"/>
      <point x="99" y="315" type="line"/>
      <point x="99" y="359" type="line"/>
      <point x="392" y="359" type="line"/>
      <point x="465" y="345"/>
      <point x="537" y="302"/>
      <point x="537" y="209" type="curve" smooth="yes"/>
      <point x="537" y="122"/>
      <point x="477" y="35"/>
      <point x="333" y="35" type="curve" smooth="yes"/>
      <point x="153" y="35"/>
      <point x="50" y="206"/>
      <point x="50" y="410" type="curve" smooth="yes"/>
      <point x="50" y="665"/>
      <point x="177" y="848"/>
      <point x="404" y="848" type="curve" smooth="yes"/>
    </contour>
  </outline>
</glyph>
<glyph name="grKA" format="1">
  <advance width="577"/>
  <unicode hex="0A15"/>
  <outline>
    <contour>
      <point x="597" y="635" type="line"/>
      <point x="-20" y="635" type="line"/>
      <point x="-20" y="580" type="line"/>
      <point x="597" y="580" type="line"/>
    </contour>
    <contour>
      <point x="435" y="443" type="line" smooth="yes"/>
      <point x="435" y="296"/>
      <point x="351" y="200"/>
      <point x="228" y="200" type="curve" smooth="yes"/>
      <point x="145" y="200"/>
      <point x="104" y="244"/>
      <point x="104" y="300" type="curve" smooth="yes"/>
      <point x="104" y="356"/>
      <point x="145" y="400"/>
      <point x="228" y="400" type="curve" smooth="yes"/>
      <point x="351" y="400"/>
      <point x="434" y="275"/>
      <point x="440" y="95" type="curve" smooth="yes"/>
      <point x="443" y="0" type="line"/>
      <point x="505" y="0" type="line"/>
      <point x="501" y="95" type="line" smooth="yes"/>
      <point x="491" y="326"/>
      <point x="377" y="457"/>
      <point x="228" y="457" type="curve" smooth="yes"/>
      <point x="112" y="457"/>
      <point x="40" y="385"/>
      <point x="40" y="297" type="curve" smooth="yes"/>
      <point x="40" y="209"/>
      <point x="112" y="143"/>
      <point x="228" y="143" type="curve" smooth="yes"/>
      <point x="377" y="143"/>
      <point x="497" y="250"/>
      <point x="497" y="443" type="curve" smooth="yes"/>
      <point x="497" y="601" type="line"/>
      <point x="435" y="601" type="line"/>
    </contour>
    <contour>
      <point x="321" y="0" type="move" name="bottom"/>
    </contour>
    <contour>
      <point x="466" y="635" type="move" name="top.tippi"/>
    </contour>
    <contour>
      <point x="466" y="635" type="move" name="top.bindi"/>
    </contour>
    <contour>
      <point x="474" y="0" type="move" name="bottom.HAc2"/>
    </contour>
    <contour>
      <point x="321" y="0" type="move" name="bottom.virama"/>
    </contour>
    <contour>
      <point x="466" y="635" type="move" name="top"/>
    </contour>
    <contour>
      <point x="505" y="0" type="move" name="bottom.VAc2"/>
    </contour>
    <contour>
      <point x="466" y="635" type="move" name="top.addak"/>
    </contour>
  </outline>
</glyph>
<glyph name="grCA" format="1">
  <advance width="566"/>
  <unicode hex="0A1A"/>
  <outline>
    <contour>
      <point x="411" y="363" type="line"/>
      <point x="109" y="363" type="line"/>
      <point x="109" y="308" type="line"/>
      <point x="411" y="308" type="line"/>
    </contour>
    <contour>
      <point x="-20" y="580" type="line"/>
      <point x="586" y="580" type="line"/>
      <point x="586" y="635" type="line"/>
      <point x="-20" y="635" type="line"/>
    </contour>
    <contour>
      <point x="404" y="121" type="line" smooth="yes"/>
      <point x="404" y="78"/>
      <point x="387" y="51"/>
      <point x="342" y="51" type="curve" smooth="yes"/>
      <point x="288" y="51"/>
      <point x="249" y="102"/>
      <point x="207" y="196" type="curve" smooth="yes"/>
      <point x="109" y="434" type="line"/>
      <point x="61" y="434" type="line"/>
      <point x="47" y="415"/>
      <point x="22" y="378"/>
      <point x="22" y="349" type="curve" smooth="yes"/>
      <point x="22" y="326"/>
      <point x="37" y="308"/>
      <point x="71" y="308" type="curve" smooth="yes"/>
      <point x="90" y="308" type="line"/>
      <point x="159" y="155" type="line" smooth="yes"/>
      <point x="204" y="55"/>
      <point x="262" y="-6"/>
      <point x="342" y="-6" type="curve" smooth="yes"/>
      <point x="420" y="-6"/>
      <point x="466" y="49"/>
      <point x="466" y="119" type="curve" smooth="yes"/>
      <point x="466" y="619" type="line"/>
      <point x="404" y="619" type="line"/>
    </contour>
    <contour>
      <point x="303" y="-6" type="move" name="bottom"/>
    </contour>
    <contour>
      <point x="435" y="635" type="move" name="top.tippi"/>
    </contour>
    <contour>
      <point x="435" y="635" type="move" name="top.bindi"/>
    </contour>
    <contour>
      <point x="435" y="-40" type="move" name="bottom.HAc2"/>
    </contour>
    <contour>
      <point x="342" y="-6" type="move" name="bottom.virama"/>
    </contour>
    <contour>
      <point x="435" y="635" type="move" name="top"/>
    </contour>
    <contour>
      <point x="466" y="-40" type="move" name="bottom.VAc2"/>
    </contour>
    <contour>
      <point x="435" y="635" type="move" name="top.addak"/>
    </contour>
  </outline>
</glyph>
<glyph name="grCHA" format="1">
  <advance width="564"/>
  <unicode hex="0A1B"/>
  <outline>
    <contour>
      <point x="463" y="580" type="line"/>
      <point x="584" y="580" type="line"/>
      <point x="584" y="635" type="line"/>
      <point x="-20" y="636" type="line"/>
      <point x="-20" y="581" type="line"/>
      <point x="401" y="580" type="line"/>
      <point x="401" y="484" type="line"/>
      <point x="208" y="485" type="line" smooth="yes"/>
      <point x="120" y="485"/>
      <point x="70" y="439"/>
      <point x="70" y="369" type="curve" smooth="yes"/>
      <point x="70" y="282"/>
      <point x="147" y="247"/>
      <point x="292" y="239" type="curve" smooth="yes"/>
      <point x="416" y="232"/>
      <point x="460" y="203"/>
      <point x="460" y="144" type="curve" smooth="yes"/>
      <point x="460" y="89"/>
      <point x="408" y="44"/>
      <point x="291" y="45" type="curve" smooth="yes"/>
      <point x="174" y="46"/>
      <point x="123" y="90"/>
      <point x="122" y="145" type="curve" smooth="yes"/>
      <point x="121" y="204"/>
      <point x="182" y="234"/>
      <point x="259" y="238" type="curve"/>
      <point x="259" y="20" type="line"/>
      <point x="319" y="19" type="line"/>
      <point x="319" y="287" type="line"/>
      <point x="259" y="288" type="line"/>
      <point x="184" y="288"/>
      <point x="60" y="245"/>
      <point x="60" y="145" type="curve" smooth="yes"/>
      <point x="60" y="56"/>
      <point x="142" y="-7"/>
      <point x="291" y="-7" type="curve" smooth="yes"/>
      <point x="440" y="-7"/>
      <point x="524" y="56"/>
      <point x="524" y="144" type="curve" smooth="yes"/>
      <point x="524" y="240"/>
      <point x="444" y="280"/>
      <point x="319" y="290" type="curve" smooth="yes"/>
      <point x="188" y="300"/>
      <point x="132" y="315"/>
      <point x="132" y="371" type="curve" smooth="yes"/>
      <point x="132" y="410"/>
      <point x="167" y="430"/>
      <point x="212" y="430" type="curve" smooth="yes"/>
      <point x="463" y="429" type="line"/>
    </contour>
    <contour>
      <point x="289" y="-7" type="move" name="bottom"/>
    </contour>
    <contour>
      <point x="432" y="635" type="move" name="top.tippi"/>
    </contour>
    <contour>
      <point x="432" y="635" type="move" name="top.bindi"/>
    </contour>
    <contour>
      <point x="291" y="-6" type="move" name="bottom.HAc2"/>
    </contour>
    <contour>
      <point x="291" y="-7" type="move" name="bottom.virama"/>
    </contour>
    <contour>
      <point x="432" y="635" type="move" name="top"/>
    </contour>
    <contour>
      <point x="364" y="-24" type="move" name="bottom.VAc2"/>
    </contour>
    <contour>
      <point x="432" y="635" type="move" name="top.addak"/>
    </contour>
  </outline>
</glyph>
<glyph name="grJHA" format="1">
  <advance width="520"/>
  <unicode hex="0A1D"/>
  <outline>
    <contour>
      <point x="540" y="580" type="line"/>
      <point x="540" y="635" type="line"/>
      <point x="-20" y="635" type="line"/>
      <point x="-20" y="580" type="line"/>
    </contour>
    <contour>
      <point x="52" y="482"/>
      <point x="109" y="398"/>
      <point x="218" y="334" type="curve"/>
      <point x="272" y="334" type="line"/>
      <point x="379" y="398"/>
      <point x="438" y="482"/>
      <point x="438" y="602" type="curve"/>
      <point x="378" y="602" type="line"/>
      <point x="378" y="519"/>
      <point x="348" y="445"/>
      <point x="245" y="385" type="curve"/>
      <point x="140" y="445"/>
      <point x="112" y="519"/>
      <point x="112" y="600" type="curve"/>
      <point x="52" y="600" type="line"/>
    </contour>
    <contour>
      <point x="73" y="129" type="line"/>
      <point x="104" y="112"/>
      <point x="170" y="85"/>
      <point x="254" y="85" type="curve" smooth="yes"/>
      <point x="394" y="85"/>
      <point x="460" y="151"/>
      <point x="460" y="233" type="curve" smooth="yes"/>
      <point x="460" y="315"/>
      <point x="374" y="385"/>
      <point x="245" y="385" type="curve" smooth="yes"/>
      <point x="171" y="385"/>
      <point x="120" y="378"/>
      <point x="66" y="361" type="curve"/>
      <point x="66" y="304" type="line"/>
      <point x="116" y="319"/>
      <point x="170" y="328"/>
      <point x="236" y="328" type="curve" smooth="yes"/>
      <point x="329" y="328"/>
      <point x="398" y="293"/>
      <point x="398" y="236" type="curve" smooth="yes"/>
      <point x="398" y="179"/>
      <point x="345" y="142"/>
      <point x="254" y="142" type="curve" smooth="yes"/>
      <point x="176" y="142"/>
      <point x="124" y="158"/>
      <point x="73" y="182" type="curve"/>
    </contour>
    <contour>
      <point x="357" y="-34" type="line"/>
      <point x="120" y="160" type="line"/>
      <point x="73" y="129" type="line"/>
      <point x="267" y="-34" type="line"/>
    </contour>
    <contour>
      <point x="254" y="-34" type="move" name="bottom"/>
    </contour>
    <contour>
      <point x="245" y="635" type="move" name="top.tippi"/>
    </contour>
    <contour>
      <point x="245" y="635" type="move" name="top.bindi"/>
    </contour>
    <contour>
      <point x="316" y="-57" type="move" name="bottom.HAc2"/>
    </contour>
    <contour>
      <point x="335" y="-34" type="move" name="bottom.virama"/>
    </contour>
    <contour>
      <point x="405" y="635" type="move" name="top"/>
    </contour>
    <contour>
      <point x="357" y="-35" type="move" name="bottom.VAc2"/>
    </contour>
    <contour>
      <point x="245" y="635" type="move" name="top.addak"/>
    </contour>
  </outline>
</glyph>
<glyph name="grNNA" format="1">
  <advance width="552"/>
  <unicode hex="0A23"/>
  <outline>
    <contour>
      <point x="315" y="433"/>
      <point x="253" y="475"/>
      <point x="179" y="597" type="curve"/>
      <point x="113" y="593" type="line"/>
      <point x="199" y="440"/>
      <point x="279" y="381"/>
      <point x="465" y="355" type="curve" smooth="yes"/>
      <point x="522" y="347" type="line"/>
      <point x="522" y="404" type="line"/>
      <point x="465" y="412" type="line" smooth="yes"/>
    </contour>
    <contour>
      <point x="310" y="313" type="line"/>
      <point x="364" y="273" type="line"/>
      <point x="413" y="408" type="line"/>
      <point x="352" y="427" type="line"/>
    </contour>
    <contour>
      <point x="341" y="329" type="line"/>
      <point x="172" y="354"/>
      <point x="40" y="266"/>
      <point x="40" y="184" type="curve" smooth="yes"/>
      <point x="40" y="95"/>
      <point x="139" y="-10"/>
      <point x="300" y="-10" type="curve" smooth="yes"/>
      <point x="406" y="-10"/>
      <point x="479" y="25"/>
      <point x="522" y="53" type="curve"/>
      <point x="522" y="115" type="line"/>
      <point x="473" y="81"/>
      <point x="406" y="47"/>
      <point x="300" y="47" type="curve" smooth="yes"/>
      <point x="178" y="47"/>
      <point x="104" y="114"/>
      <point x="104" y="184" type="curve" smooth="yes"/>
      <point x="104" y="248"/>
      <point x="223" y="298"/>
      <point x="364" y="273" type="curve"/>
    </contour>
    <contour>
      <point x="572" y="580" type="line"/>
      <point x="572" y="635" type="line"/>
      <point x="-20" y="635" type="line"/>
      <point x="-20" y="580" type="line"/>
    </contour>
    <contour>
      <point x="300" y="-10" type="move" name="bottom"/>
    </contour>
    <contour>
      <point x="341" y="635" type="move" name="top.tippi"/>
    </contour>
    <contour>
      <point x="341" y="635" type="move" name="top.bindi"/>
    </contour>
    <contour>
      <point x="344" y="0" type="move" name="bottom.HAc2"/>
    </contour>
    <contour>
      <point x="300" y="-10" type="move" name="bottom.virama"/>
    </contour>
    <contour>
      <point x="341" y="635" type="move" name="top"/>
    </contour>
    <contour>
      <point x="375" y="-26" type="move" name="bottom.VAc2"/>
    </contour>
    <contour>
      <point x="341" y="635" type="move" name="top.addak"/>
    </contour>
  </outline>
</glyph>
<glyph name="grNA" format="1">
  <advance width="586"/>
  <unicode hex="0A28"/>
  <outline>
    <contour>
      <point x="606" y="580" type="line"/>
      <point x="606" y="635" type="line"/>
      <point x="-20" y="635" type="line"/>
      <point x="-20" y="580" type="line"/>
      <point x="262" y="580" type="line"/>
      <point x="262" y="432" type="line"/>
      <point x="123" y="416"/>
      <point x="50" y="318"/>
      <point x="50" y="201" type="curve" smooth="yes"/>
      <point x="50" y="105"/>
      <point x="92" y="45"/>
      <point x="133" y="0" type="curve"/>
      <point x="205" y="0" type="line"/>
      <point x="174" y="35"/>
      <point x="114" y="102"/>
      <point x="114" y="201" type="curve" smooth="yes"/>
      <point x="114" y="311"/>
      <point x="189" y="375"/>
      <point x="293" y="375" type="curve" smooth="yes"/>
      <point x="397" y="375"/>
      <point x="472" y="311"/>
      <point x="472" y="201" type="curve" smooth="yes"/>
      <point x="472" y="102"/>
      <point x="412" y="35"/>
      <point x="381" y="0" type="curve"/>
      <point x="453" y="0" type="line"/>
      <point x="494" y="46"/>
      <point x="536" y="105"/>
      <point x="536" y="201" type="curve" smooth="yes"/>
      <point x="536" y="318"/>
      <point x="463" y="416"/>
      <point x="324" y="432" type="curve"/>
      <point x="324" y="580" type="line"/>
    </contour>
    <contour>
      <point x="293" y="0" type="move" name="bottom"/>
    </contour>
    <contour>
      <point x="293" y="635" type="move" name="top.tippi"/>
    </contour>
    <contour>
      <point x="293" y="635" type="move" name="top.bindi"/>
    </contour>
    <contour>
      <point x="422" y="-10" type="move" name="bottom.HAc2"/>
    </contour>
    <contour>
      <point x="293" y="0" type="move" name="bottom.virama"/>
    </contour>
    <contour>
      <point x="293" y="635" type="move" name="top"/>
    </contour>
    <contour>
      <point x="453" y="-10" type="move" name="bottom.VAc2"/>
    </contour>
    <contour>
      <point x="293" y="635" type="move" name="top.addak"/>
    </contour>
  </outline>
</glyph>
<glyph name="grBHA" format="1">
  <advance width="561"/>
  <unicode hex="0A2D"/>
  <outline>
    <contour>
      <point x="581" y="635" type="line"/>
      <point x="-20" y="635" type="line"/>
      <point x="-20" y="580" type="line"/>
      <point x="581" y="580" type="line"/>
    </contour>
    <contour>
      <point x="37" y="52" type="line"/>
      <point x="74" y="24"/>
      <point x="141" y="-14"/>
      <point x="249" y="-14" type="curve" smooth="yes"/>
      <point x="378" y="-14"/>
      <point x="501" y="58"/>
      <point x="501" y="210" type="curve" smooth="yes"/>
      <point x="501" y="269"/>
      <point x="481" y="320"/>
      <point x="448" y="358" type="curve"/>
      <point x="453" y="374"/>
      <point x="454" y="392"/>
      <point x="454" y="422" type="curve" smooth="yes"/>
      <point x="454" y="625" type="line"/>
      <point x="392" y="625" type="line"/>
      <point x="392" y="392" type="line"/>
      <point x="415" y="399" type="line"/>
      <point x="375" y="439"/>
      <point x="318" y="478"/>
      <point x="238" y="478" type="curve" smooth="yes"/>
      <point x="146" y="478"/>
      <point x="70" y="428"/>
      <point x="70" y="345" type="curve" smooth="yes"/>
      <point x="70" y="267"/>
      <point x="146" y="212"/>
      <point x="238" y="212" type="curve" smooth="yes"/>
      <point x="332" y="212"/>
      <point x="387" y="251"/>
      <point x="425" y="315" type="curve"/>
      <point x="405" y="314" type="line"/>
      <point x="426" y="290"/>
      <point x="439" y="259"/>
      <point x="439" y="210" type="curve" smooth="yes"/>
      <point x="439" y="105"/>
      <point x="356" y="43"/>
      <point x="249" y="43" type="curve" smooth="yes"/>
      <point x="152" y="43"/>
      <point x="89" y="77"/>
      <point x="37" y="114" type="curve"/>
    </contour>
    <contour>
      <point x="176" y="269"/>
      <point x="134" y="300"/>
      <point x="134" y="345" type="curve" smooth="yes"/>
      <point x="134" y="391"/>
      <point x="176" y="421"/>
      <point x="238" y="421" type="curve" smooth="yes"/>
      <point x="310" y="421"/>
      <point x="356" y="383"/>
      <point x="382" y="352" type="curve"/>
      <point x="355" y="297"/>
      <point x="306" y="269"/>
      <point x="238" y="269" type="curve" smooth="yes"/>
    </contour>
    <contour>
      <point x="249" y="-14" type="move" name="bottom"/>
    </contour>
    <contour>
      <point x="423" y="635" type="move" name="top.tippi"/>
    </contour>
    <contour>
      <point x="423" y="635" type="move" name="top.bindi"/>
    </contour>
    <contour>
      <point x="290" y="-7" type="move" name="bottom.HAc2"/>
    </contour>
    <contour>
      <point x="249" y="-14" type="move" name="bottom.virama"/>
    </contour>
    <contour>
      <point x="423" y="635" type="move" name="top"/>
    </contour>
    <contour>
      <point x="351" y="-29" type="move" name="bottom.VAc2"/>
    </contour>
    <contour>
      <point x="423" y="635" type="move" name="top.addak"/>
    </contour>
  </outline>
</glyph>
<glyph name="grYA" format="1">
  <advance width="714"/>
  <unicode hex="0A2F"/>
  <outline>
    <contour>
      <point x="161" y="176"/>
      <point x="119" y="256"/>
      <point x="117" y="337" type="curve"/>
      <point x="154" y="379"/>
      <point x="179" y="411"/>
      <point x="179" y="487" type="curve" smooth="yes"/>
      <point x="179" y="557"/>
      <point x="135" y="635"/>
      <point x="19" y="635" type="curve" smooth="yes"/>
      <point x="-20" y="635" type="line"/>
      <point x="-20" y="580" type="line"/>
      <point x="8" y="580" type="line" smooth="yes"/>
      <point x="83" y="580"/>
      <point x="115" y="541"/>
      <point x="115" y="487" type="curve" smooth="yes"/>
      <point x="115" y="435"/>
      <point x="88" y="393"/>
      <point x="50" y="356" type="curve"/>
      <point x="62" y="211"/>
      <point x="130" y="119"/>
      <point x="240" y="119" type="curve" smooth="yes"/>
      <point x="349" y="119"/>
      <point x="408" y="186"/>
      <point x="408" y="286" type="curve" smooth="yes"/>
      <point x="408" y="395" type="line"/>
      <point x="346" y="395" type="line"/>
      <point x="346" y="286" type="line" smooth="yes"/>
      <point x="346" y="217"/>
      <point x="315" y="176"/>
      <point x="240" y="176" type="curve" smooth="yes"/>
    </contour>
    <contour>
      <point x="601" y="360" type="line"/>
      <point x="601" y="415" type="line"/>
      <point x="346" y="415" type="line"/>
      <point x="346" y="360" type="line"/>
    </contour>
    <contour>
      <point x="552" y="590" type="line"/>
      <point x="552" y="0" type="line"/>
      <point x="614" y="0" type="line"/>
      <point x="614" y="590" type="line"/>
    </contour>
    <contour>
      <point x="734" y="635" type="line"/>
      <point x="552" y="635" type="line"/>
      <point x="552" y="580" type="line"/>
      <point x="734" y="580" type="line"/>
    </contour>
    <contour>
      <point x="430" y="0" type="move" name="bottom"/>
    </contour>
    <contour>
      <point x="583" y="635" type="move" name="top.tippi"/>
    </contour>
    <contour>
      <point x="583" y="635" type="move" name="top.bindi"/>
    </contour>
    <contour>
      <point x="583" y="0" type="move" name="bottom.HAc2"/>
    </contour>
    <contour>
      <point x="583" y="0" type="move" name="bottom.virama"/>
    </contour>
    <contour>
      <point x="583" y="635" type="move" name="top"/>
    </contour>
    <contour>
      <point x="614" y="0" type="move" name="bottom.VAc2"/>
    </contour>
    <contour>
      <point x="583" y="635" type="move" name="top.addak"/>
    </contour>
  </outline>
</glyph>
<glyph name="grSA" format="1">
  <advance width="552"/>
  <unicode hex="0A38"/>
  <outline>
    <contour>
      <point x="-20" y="580" type="line"/>
      <point x="572" y="580" type="line"/>
      <point x="572" y="635" type="line"/>
      <point x="-20" y="635" type="line"/>
    </contour>
    <contour>
      <point x="452" y="0" type="line"/>
      <point x="452" y="589" type="line"/>
      <point x="390" y="589" type="line"/>
      <point x="390" y="0" type="line"/>
    </contour>
    <contour>
      <point x="410" y="295" type="line"/>
      <point x="410" y="350" type="line"/>
      <point x="157" y="350" type="line"/>
      <point x="157" y="295" type="line"/>
    </contour>
    <contour>
      <point x="42" y="602" type="line"/>
      <point x="83" y="543"/>
      <point x="104" y="461"/>
      <point x="104" y="379" type="curve" smooth="yes"/>
      <point x="104" y="301"/>
      <point x="75" y="214"/>
      <point x="41" y="146" type="curve"/>
      <point x="104" y="146" type="line"/>
      <point x="142" y="217"/>
      <point x="168" y="291"/>
      <point x="168" y="379" type="curve" smooth="yes"/>
      <point x="168" y="479"/>
      <point x="132" y="576"/>
      <point x="99" y="631" type="curve"/>
    </contour>
    <contour>
      <point x="268" y="0" type="move" name="bottom"/>
    </contour>
    <contour>
      <point x="421" y="635" type="move" name="top.tippi"/>
    </contour>
    <contour>
      <point x="421" y="635" type="move" name="top.bindi"/>
    </contour>
    <contour>
      <point x="421" y="0" type="move" name="bottom.HAc2"/>
    </contour>
    <contour>
      <point x="421" y="0" type="move" name="bottom.virama"/>
    </contour>
    <contour>
      <point x="421" y="635" type="move" name="top"/>
    </contour>
    <contour>
      <point x="452" y="0" type="move" name="bottom.VAc2"/>
    </contour>
    <contour>
      <point x="421" y="635" type="move" name="top.addak"/>
    </contour>
  </outline>
</glyph>
<glyph name="grmAA" format="1">
  <advance width="242"/>
  <unicode hex="0A3E"/>
  <outline>
    <contour>
      <point x="152" y="580" type="line"/>
      <point x="262" y="580" type="line"/>
      <point x="262" y="635" type="line"/>
      <point x="-20" y="635" type="line"/>
      <point x="-20" y="580" type="line"/>
      <point x="90" y="580" type="line"/>
      <point x="90" y="290" type="line"/>
      <point x="152" y="290" type="line"/>
    </contour>
    <contour>
      <point x="121" y="635" type="move" name="top"/>
    </contour>
    <contour>
      <point x="121" y="635" type="move" name="top.bindi"/>
    </contour>
  </outline>
</glyph>
<glyph name="grmII" format="1">
  <advance width="262"/>
  <unicode hex="0A40"/>
  <outline>
    <contour>
      <point x="-20" y="635" type="line"/>
      <point x="-20" y="580" type="line"/>
      <point x="100" y="580" type="line"/>
      <point x="100" y="0" type="line"/>
      <point x="162" y="0" type="line"/>
      <point x="162" y="580" type="line"/>
      <point x="282" y="580" type="line"/>
      <point x="282" y="635" type="line"/>
    </contour>
    <contour>
      <point x="162" y="625" type="line"/>
      <point x="162" y="726" type="line" smooth="yes"/>
      <point x="162" y="841"/>
      <point x="83" y="888"/>
      <point x="-7" y="888" type="curve" smooth="yes"/>
      <point x="-97" y="888"/>
      <point x="-176" y="841"/>
      <point x="-176" y="726" type="curve" smooth="yes"/>
      <point x="-176" y="688" type="line"/>
      <point x="-114" y="688" type="line"/>
      <point x="-114" y="725" type="line" smooth="yes"/>
      <point x="-114" y="798"/>
      <point x="-67" y="831"/>
      <point x="-7" y="831" type="curve" smooth="yes"/>
      <point x="53" y="831"/>
      <point x="100" y="797"/>
      <point x="100" y="725" type="curve" smooth="yes"/>
      <point x="100" y="625" type="line"/>
    </contour>
  </outline>
</glyph>
<glyph name="grTwo" format="1">
  <advance width="557"/>
  <unicode hex="0A68"/>
  <outline>
    <contour>
      <point x="40" y="320" type="line"/>
      <point x="40" y="250"/>
      <point x="156" y="216"/>
      <point x="246" y="216" type="curve" smooth="yes"/>
      <point x="387" y="216"/>
      <point x="487" y="305"/>
      <point x="487" y="433" type="curve" smooth="yes"/>
      <point x="487" y="561"/>
      <point x="387" y="650"/>
      <point x="246" y="650" type="curve" smooth="yes"/>
      <point x="156" y="650"/>
      <point x="112" y="625"/>
      <point x="70" y="605" type="curve"/>
      <point x="70" y="545" type="line"/>
      <point x="119" y="568"/>
      <point x="165" y="593"/>
      <point x="246" y="593" type="curve" smooth="yes"/>
      <point x="359" y="593"/>
      <point x="423" y="527"/>
      <point x="423" y="433" type="curve" smooth="yes"/>
      <point x="423" y="339"/>
      <point x="359" y="273"/>
      <point x="246" y="273" type="curve" smooth="yes"/>
      <point x="185" y="273"/>
      <point x="114" y="291"/>
      <point x="94" y="328" type="curve"/>
    </contour>
    <contour>
      <point x="345" y="-13" type="line"/>
      <point x="127" y="394" type="line"/>
      <point x="80" y="394" type="line"/>
      <point x="63" y="377"/>
      <point x="40" y="350"/>
      <point x="40" y="320" type="curve" smooth="yes"/>
      <point x="40" y="292"/>
      <point x="64" y="265"/>
      <point x="106" y="255" type="curve"/>
      <point x="137" y="255" type="line"/>
      <point x="277" y="-13" type="line"/>
    </contour>
  </outline>
</glyph>
<glyph name="grFour" format="1">
  <advance width="570"/>
  <unicode hex="0A6A"/>
  <outline>
    <contour>
      <point x="205" y="47"/>
      <point x="159" y="89"/>
      <point x="159" y="157" type="curve" smooth="yes"/>
      <point x="159" y="225"/>
      <point x="213" y="271"/>
      <point x="287" y="320" type="curve" smooth="yes"/>
      <point x="409" y="401"/>
      <point x="527" y="497"/>
      <point x="487" y="635" type="curve"/>
      <point x="422" y="635" type="line"/>
      <point x="462" y="513"/>
      <point x="365" y="443"/>
      <point x="258" y="371" type="curve" smooth="yes"/>
      <point x="168" y="310"/>
      <point x="95" y="253"/>
      <point x="95" y="157" type="curve" smooth="yes"/>
      <point x="95" y="62"/>
      <point x="172" y="-10"/>
      <point x="285" y="-10" type="curve" smooth="yes"/>
      <point x="398" y="-10"/>
      <point x="475" y="61"/>
      <point x="475" y="157" type="curve" smooth="yes"/>
      <point x="475" y="253"/>
      <point x="402" y="310"/>
      <point x="312" y="371" type="curve" smooth="yes"/>
      <point x="205" y="443"/>
      <point x="108" y="513"/>
      <point x="148" y="635" type="curve"/>
      <point x="83" y="635" type="line"/>
      <point x="43" y="497"/>
      <point x="161" y="401"/>
      <point x="283" y="320" type="curve" smooth="yes"/>
      <point x="357" y="271"/>
      <point x="411" y="225"/>
      <point x="411" y="157" type="curve" smooth="yes"/>
      <point x="411" y="89"/>
      <point x="365" y="47"/>
      <point x="285" y="47" type="curve" smooth="yes"/>
    </contour>
  </outline>
</glyph>
<glyph name="grFive" format="1">
  <advance width="585"/>
  <unicode hex="0A6B"/>
  <outline>
    <contour>
      <point x="95" y="580"/>
      <point x="132" y="541"/>
      <point x="132" y="487" type="curve" smooth="yes"/>
      <point x="132" y="442"/>
      <point x="111" y="396"/>
      <point x="67" y="354" type="curve"/>
      <point x="82" y="230"/>
      <point x="159" y="143"/>
      <point x="275" y="143" type="curve" smooth="yes"/>
      <point x="352" y="143"/>
      <point x="403" y="175"/>
      <point x="423" y="210" type="curve"/>
      <point x="423" y="334" type="line"/>
      <point x="423" y="253"/>
      <point x="362" y="200"/>
      <point x="283" y="200" type="curve" smooth="yes"/>
      <point x="190" y="200"/>
      <point x="139" y="270"/>
      <point x="133" y="342" type="curve"/>
      <point x="178" y="393"/>
      <point x="196" y="430"/>
      <point x="196" y="487" type="curve" smooth="yes"/>
      <point x="196" y="550"/>
      <point x="148" y="635"/>
      <point x="50" y="635" type="curve"/>
      <point x="50" y="580" type="line"/>
    </contour>
    <contour>
      <point x="423" y="635" type="line"/>
      <point x="423" y="0" type="line"/>
      <point x="485" y="0" type="line"/>
      <point x="485" y="635" type="line"/>
    </contour>
  </outline>
</glyph>
<glyph name="grSeven" format="1">
  <advance width="565"/>
  <unicode hex="0A6D"/>
  <outline>
    <contour>
      <point x="263" y="351" type="line"/>
      <point x="160" y="351"/>
      <point x="119" y="411"/>
      <point x="119" y="468" type="curve" smooth="yes"/>
      <point x="119" y="525"/>
      <point x="164" y="585"/>
      <point x="247" y="585" type="curve" smooth="yes"/>
      <point x="335" y="585"/>
      <point x="421" y="519"/>
      <point x="421" y="368" type="curve" smooth="yes"/>
      <point x="421" y="207"/>
      <point x="330" y="95"/>
      <point x="143" y="57" type="curve"/>
      <point x="143" y="-5" type="line"/>
      <point x="373" y="39"/>
      <point x="485" y="179"/>
      <point x="485" y="368" type="curve" smooth="yes"/>
      <point x="485" y="557"/>
      <point x="367" y="642"/>
      <point x="250" y="642" type="curve" smooth="yes"/>
      <point x="129" y="642"/>
      <point x="55" y="564"/>
      <point x="55" y="468" type="curve" smooth="yes"/>
      <point x="55" y="372"/>
      <point x="130" y="294"/>
      <point x="263" y="294" type="curve"/>
    </contour>
  </outline>
</glyph>
<glyph name="grAddak" format="1">
  <advance width="0"/>
  <unicode hex="0A71"/>
  <outline>
    <contour>
      <point x="-44" y="687"/>
      <point x="6" y="744"/>
      <point x="6" y="835" type="curve"/>
      <point x="-56" y="835" type="line"/>
      <point x="-56" y="782"/>
      <point x="-70" y="739"/>
      <point x="-130" y="739" type="curve" smooth="yes"/>
      <point x="-190" y="739"/>
      <point x="-204" y="782"/>
      <point x="-204" y="835" type="curve"/>
      <point x="-266" y="835" type="line"/>
      <point x="-266" y="744"/>
      <point x="-216" y="687"/>
      <point x="-130" y="687" type="curve" smooth="yes"/>
    </contour>
    <contour>
      <point x="-130" y="635" type="move" name="_top.addak"/>
    </contour>
  </outline>
</glyph>
<glyph name="grIri" format="1">
  <advance width="583"/>
  <unicode hex="0A72"/>
  <outline>
    <contour>
      <point x="483" y="307" type="line"/>
      <point x="483" y="580" type="line"/>
      <point x="603" y="580" type="line"/>
      <point x="603" y="635" type="line"/>
      <point x="-20" y="635" type="line"/>
      <point x="-20" y="580" type="line"/>
      <point x="100" y="580" type="line"/>
      <point x="100" y="471" type="line" smooth="yes"/>
      <point x="100" y="416"/>
      <point x="129" y="364"/>
      <point x="179" y="339" type="curve"/>
      <point x="121" y="317"/>
      <point x="80" y="276"/>
      <point x="80" y="203" type="curve" smooth="yes"/>
      <point x="80" y="103"/>
      <point x="175" y="25"/>
      <point x="329" y="25" type="curve" smooth="yes"/>
      <point x="415" y="25"/>
      <point x="476" y="46"/>
      <point x="514" y="65" type="curve"/>
      <point x="514" y="125" type="line"/>
      <point x="473" y="103"/>
      <point x="407" y="82"/>
      <point x="330" y="82" type="curve" smooth="yes"/>
      <point x="209" y="82"/>
      <point x="144" y="135"/>
      <point x="144" y="203" type="curve" smooth="yes"/>
      <point x="144" y="259"/>
      <point x="180" y="307"/>
      <point x="294" y="307" type="curve" smooth="yes"/>
    </contour>
    <contour>
      <point x="163" y="580" type="line"/>
      <point x="422" y="580" type="line"/>
      <point x="422" y="364" type="line"/>
      <point x="286" y="364" type="line" smooth="yes"/>
      <point x="200" y="364"/>
      <point x="163" y="401"/>
      <point x="163" y="475" type="curve" smooth="yes"/>
    </contour>
  </outline>
</glyph>
<glyph name="grUdaat" format="1">
  <advance width="0"/>
  <unicode hex="0A75"/>
  <outline>
    <contour>
      <point x="-150" y="-69" type="line"/>
      <point x="-11" y="-231" type="line"/>
      <point x="52" y="-231" type="line"/>
      <point x="-72" y="-69" type="line"/>
    </contour>
    <contour>
      <point x="-111" y="0" type="move" name="_bottom"/>
    </contour>
  </outline>
</glyph>
<glyph name="grDA_RAc2" format="1">
  <advance width="534"/>
  <outline>
    <contour>
      <point x="554" y="635" type="line"/>
      <point x="-20" y="635" type="line"/>
      <point x="-20" y="580" type="line"/>
      <point x="372" y="580" type="line"/>
      <point x="372" y="455" type="line" smooth="yes"/>
      <point x="372" y="391"/>
      <point x="355" y="353"/>
      <point x="261" y="353" type="curve" smooth="yes"/>
      <point x="87" y="353" type="line"/>
      <point x="87" y="298" type="line"/>
      <point x="267" y="298" type="line" smooth="yes"/>
      <point x="386" y="298"/>
      <point x="434" y="349"/>
      <point x="434" y="448" type="curve" smooth="yes"/>
      <point x="434" y="580" type="line"/>
      <point x="554" y="580" type="line"/>
    </contour>
    <contour>
      <point x="81" y="427" type="line"/>
      <point x="60" y="406"/>
      <point x="36" y="369"/>
      <point x="36" y="343" type="curve" smooth="yes"/>
      <point x="36" y="315"/>
      <point x="54" y="298"/>
      <point x="82" y="298" type="curve" smooth="yes"/>
      <point x="151" y="298" type="line"/>
      <point x="138" y="427" type="line"/>
    </contour>
    <contour>
      <point x="401" y="65"/>
      <point x="358" y="45"/>
      <point x="305" y="45" type="curve" smooth="yes"/>
      <point x="197" y="45"/>
      <point x="161" y="126"/>
      <point x="151" y="262" type="curve" smooth="yes"/>
      <point x="148" y="303" type="line"/>
      <point x="87" y="303" type="line"/>
      <point x="93" y="237" type="line" smooth="yes"/>
      <point x="108" y="69"/>
      <point x="181" y="-10"/>
      <point x="303" y="-10" type="curve" smooth="yes"/>
      <point x="360" y="-10"/>
      <point x="409" y="12"/>
      <point x="434" y="31" type="curve"/>
      <point x="434" y="92" type="line"/>
    </contour>
    <contour>
      <point x="580" y="-214" type="line"/>
      <point x="580" y="-157" type="line"/>
      <point x="378" y="-55" type="line" smooth="yes"/>
      <point x="345" y="-39"/>
      <point x="322" y="-35"/>
      <point x="295" y="-49" type="curve" smooth="yes"/>
      <point x="264" y="-65"/>
      <point x="221" y="-124"/>
      <point x="206" y="-156" type="curve"/>
      <point x="236" y="-189" type="line"/>
      <point x="391" y="-84" type="line"/>
      <point x="391" y="44" type="line"/>
      <point x="329" y="44" type="line"/>
      <point x="329" y="-93" type="line"/>
    </contour>
    <contour>
      <point x="403" y="635" type="move" name="top.addak"/>
    </contour>
    <contour>
      <point x="403" y="635" type="move" name="top"/>
    </contour>
    <contour>
      <point x="403" y="635" type="move" name="top.bindi"/>
    </contour>
    <contour>
      <point x="403" y="635" type="move" name="top.tippi"/>
    </contour>
    <contour>
      <point x="262" y="-142" type="move" name="bottom"/>
    </contour>
  </outline>
</glyph>
<glyph name="grHAc2" format="1">
  <advance width="0"/>
  <outline>
    <contour>
      <point x="-197" y="-40" type="line"/>
      <point x="-285" y="-29"/>
      <point x="-340" y="-81"/>
      <point x="-340" y="-145" type="curve" smooth="yes"/>
      <point x="-340" y="-211"/>
      <point x="-284" y="-265"/>
      <point x="-215" y="-265" type="curve" smooth="yes"/>
      <point x="-139" y="-265"/>
      <point x="-100" y="-217"/>
      <point x="-100" y="-154" type="curve" smooth="yes"/>
      <point x="-100" y="3" type="line"/>
      <point x="-162" y="3" type="line"/>
      <point x="-162" y="-154" type="line" smooth="yes"/>
      <point x="-162" y="-179"/>
      <point x="-176" y="-208"/>
      <point x="-215" y="-208" type="curve" smooth="yes"/>
      <point x="-254" y="-208"/>
      <point x="-278" y="-178"/>
      <point x="-278" y="-145" type="curve" smooth="yes"/>
      <point x="-278" y="-109"/>
      <point x="-247" y="-91"/>
      <point x="-197" y="-97" type="curve"/>
    </contour>
    <contour>
      <point x="-131" y="0" type="move" name="_bottom.HAc2"/>
    </contour>
  </outline>
</glyph>
<glyph name="grHeadline" format="1">
  <advance width="132"/>
  <outline>
    <contour>
      <point x="152" y="635" type="line"/>
      <point x="-20" y="635" type="line"/>
      <point x="-20" y="580" type="line"/>
      <point x="152" y="580" type="line"/>
    </contour>
  </outline>
</glyph>
<glyph name="grHeadline_Visarga" format="1">
  <advance width="294"/>
  <outline>
    <contour>
      <point x="100" y="457"/>
      <point x="119" y="438"/>
      <point x="146" y="438" type="curve" smooth="yes"/>
      <point x="173" y="438"/>
      <point x="194" y="457"/>
      <point x="194" y="484" type="curve" smooth="yes"/>
      <point x="194" y="510"/>
      <point x="173" y="531"/>
      <point x="146" y="531" type="curve" smooth="yes"/>
      <point x="119" y="531"/>
      <point x="100" y="510"/>
      <point x="100" y="484" type="curve" smooth="yes"/>
    </contour>
    <contour>
      <point x="100" y="130"/>
      <point x="119" y="111"/>
      <point x="146" y="111" type="curve" smooth="yes"/>
      <point x="173" y="111"/>
      <point x="194" y="130"/>
      <point x="194" y="157" type="curve" smooth="yes"/>
      <point x="194" y="183"/>
      <point x="173" y="204"/>
      <point x="146" y="204" type="curve" smooth="yes"/>
      <point x="119" y="204"/>
      <point x="100" y="183"/>
      <point x="100" y="157" type="curve" smooth="yes"/>
    </contour>
    <contour>
      <point x="314" y="635" type="line"/>
      <point x="-20" y="635" type="line"/>
      <point x="-20" y="580" type="line"/>
      <point x="314" y="580" type="line"/>
    </contour>
  </outline>
</glyph>
<glyph name="grJHA_RAc2" format="1">
  <advance width="520"/>
  <outline>
    <contour>
      <point x="540" y="580" type="line"/>
      <point x="540" y="635" type="line"/>
      <point x="-20" y="635" type="line"/>
      <point x="-20" y="580" type="line"/>
    </contour>
    <contour>
      <point x="52" y="482"/>
      <point x="109" y="398"/>
      <point x="218" y="334" type="curve"/>
      <point x="272" y="334" type="line"/>
      <point x="379" y="398"/>
      <point x="438" y="482"/>
      <point x="438" y="602" type="curve"/>
      <point x="378" y="602" type="line"/>
      <point x="378" y="519"/>
      <point x="348" y="445"/>
      <point x="245" y="385" type="curve"/>
      <point x="140" y="445"/>
      <point x="112" y="519"/>
      <point x="112" y="600" type="curve"/>
      <point x="52" y="600" type="line"/>
    </contour>
    <contour>
      <point x="73" y="129" type="line"/>
      <point x="104" y="112"/>
      <point x="170" y="85"/>
      <point x="254" y="85" type="curve" smooth="yes"/>
      <point x="394" y="85"/>
      <point x="460" y="151"/>
      <point x="460" y="233" type="curve" smooth="yes"/>
      <point x="460" y="315"/>
      <point x="374" y="385"/>
      <point x="245" y="385" type="curve" smooth="yes"/>
      <point x="171" y="385"/>
      <point x="120" y="378"/>
      <point x="66" y="361" type="curve"/>
      <point x="66" y="304" type="line"/>
      <point x="116" y="319"/>
      <point x="170" y="328"/>
      <point x="236" y="328" type="curve" smooth="yes"/>
      <point x="329" y="328"/>
      <point x="398" y="293"/>
      <point x="398" y="236" type="curve" smooth="yes"/>
      <point x="398" y="179"/>
      <point x="345" y="142"/>
      <point x="254" y="142" type="curve" smooth="yes"/>
      <point x="176" y="142"/>
      <point x="124" y="158"/>
      <point x="73" y="182" type="curve"/>
    </contour>
    <contour>
      <point x="357" y="-34" type="line"/>
      <point x="120" y="160" type="line"/>
      <point x="73" y="129" type="line"/>
      <point x="267" y="-34" type="line"/>
    </contour>
    <contour>
      <point x="502" y="-161" type="line"/>
      <point x="502" y="-104" type="line"/>
      <point x="300" y="-2" type="line" smooth="yes"/>
      <point x="267" y="14"/>
      <point x="244" y="18"/>
      <point x="217" y="4" type="curve" smooth="yes"/>
      <point x="186" y="-12"/>
      <point x="143" y="-71"/>
      <point x="128" y="-103" type="curve"/>
      <point x="158" y="-136" type="line"/>
      <point x="313" y="-31" type="line"/>
      <point x="251" y="-40" type="line"/>
    </contour>
    <contour>
      <point x="245" y="635" type="move" name="top.addak"/>
    </contour>
    <contour>
      <point x="405" y="635" type="move" name="top"/>
    </contour>
    <contour>
      <point x="245" y="635" type="move" name="top.bindi"/>
    </contour>
    <contour>
      <point x="245" y="635" type="move" name="top.tippi"/>
    </contour>
    <contour>
      <point x="254" y="-94" type="move" name="bottom"/>
    </contour>
  </outline>
</glyph>
<glyph name="grKA_RAc2" format="1">
  <advance width="577"/>
  <outline>
    <contour>
      <point x="597" y="635" type="line"/>
      <point x="-20" y="635" type="line"/>
      <point x="-20" y="580" type="line"/>
      <point x="597" y="580" type="line"/>
    </contour>
    <contour>
      <point x="435" y="443" type="line" smooth="yes"/>
      <point x="435" y="296"/>
      <point x="351" y="200"/>
      <point x="228" y="200" type="curve" smooth="yes"/>
      <point x="145" y="200"/>
      <point x="104" y="244"/>
      <point x="104" y="300" type="curve" smooth="yes"/>
      <point x="104" y="356"/>
      <point x="145" y="400"/>
      <point x="228" y="400" type="curve" smooth="yes"/>
      <point x="351" y="400"/>
      <point x="436" y="275"/>
      <point x="442" y="95" type="curve" smooth="yes"/>
      <point x="445" y="0" type="line"/>
      <point x="505" y="0" type="line"/>
      <point x="501" y="95" type="line" smooth="yes"/>
      <point x="491" y="326"/>
      <point x="377" y="457"/>
      <point x="228" y="457" type="curve" smooth="yes"/>
      <point x="112" y="457"/>
      <point x="40" y="385"/>
      <point x="40" y="297" type="curve" smooth="yes"/>
      <point x="40" y="209"/>
      <point x="112" y="143"/>
      <point x="228" y="143" type="curve" smooth="yes"/>
      <point x="377" y="143"/>
      <point x="497" y="250"/>
      <point x="497" y="443" type="curve" smooth="yes"/>
      <point x="497" y="601" type="line"/>
      <point x="435" y="601" type="line"/>
    </contour>
    <contour>
      <point x="695" y="-208" type="line"/>
      <point x="695" y="-149" type="line"/>
      <point x="493" y="-47" type="line" smooth="yes"/>
      <point x="460" y="-31"/>
      <point x="437" y="-27"/>
      <point x="410" y="-41" type="curve" smooth="yes"/>
      <point x="379" y="-57"/>
      <point x="336" y="-116"/>
      <point x="321" y="-148" type="curve"/>
      <point x="351" y="-181" type="line"/>
      <point x="505" y="-76" type="line"/>
      <point x="505" y="0" type="line"/>
      <point x="445" y="22" type="line"/>
      <point x="445" y="-85" type="line"/>
    </contour>
    <contour>
      <point x="466" y="635" type="move" name="top.addak"/>
    </contour>
    <contour>
      <point x="466" y="635" type="move" name="top"/>
    </contour>
    <contour>
      <point x="466" y="635" type="move" name="top.bindi"/>
    </contour>
    <contour>
      <point x="466" y="635" type="move" name="top.tippi"/>
    </contour>
    <contour>
      <point x="321" y="-142" type="move" name="bottom"/>
    </contour>
  </outline>
</glyph>
<glyph name="grNA_RAc2" format="1">
  <advance width="582"/>
  <outline>
    <contour>
      <point x="642" y="-226" type="line"/>
      <point x="642" y="-169" type="line"/>
      <point x="440" y="-67" type="line" smooth="yes"/>
      <point x="407" y="-51"/>
      <point x="384" y="-47"/>
      <point x="357" y="-61" type="curve" smooth="yes"/>
      <point x="326" y="-77"/>
      <point x="283" y="-136"/>
      <point x="268" y="-168" type="curve"/>
      <point x="298" y="-201" type="line"/>
      <point x="453" y="-96" type="line"/>
      <point x="453" y="10" type="line"/>
      <point x="391" y="0" type="line"/>
      <point x="391" y="-105" type="line"/>
    </contour>
    <contour>
      <point x="606" y="580" type="line"/>
      <point x="606" y="635" type="line"/>
      <point x="-20" y="635" type="line"/>
      <point x="-20" y="580" type="line"/>
      <point x="262" y="580" type="line"/>
      <point x="262" y="432" type="line"/>
      <point x="123" y="416"/>
      <point x="50" y="318"/>
      <point x="50" y="201" type="curve" smooth="yes"/>
      <point x="50" y="105"/>
      <point x="92" y="45"/>
      <point x="133" y="0" type="curve"/>
      <point x="205" y="0" type="line"/>
      <point x="174" y="35"/>
      <point x="114" y="102"/>
      <point x="114" y="201" type="curve" smooth="yes"/>
      <point x="114" y="311"/>
      <point x="189" y="375"/>
      <point x="293" y="375" type="curve" smooth="yes"/>
      <point x="397" y="375"/>
      <point x="472" y="311"/>
      <point x="472" y="201" type="curve" smooth="yes"/>
      <point x="472" y="102"/>
      <point x="422" y="35"/>
      <point x="391" y="0" type="curve"/>
      <point x="453" y="0" type="line"/>
      <point x="494" y="46"/>
      <point x="536" y="105"/>
      <point x="536" y="201" type="curve" smooth="yes"/>
      <point x="536" y="318"/>
      <point x="463" y="416"/>
      <point x="324" y="432" type="curve"/>
      <point x="324" y="580" type="line"/>
    </contour>
    <contour>
      <point x="293" y="635" type="move" name="top.addak"/>
    </contour>
    <contour>
      <point x="293" y="635" type="move" name="top"/>
    </contour>
    <contour>
      <point x="293" y="635" type="move" name="top.bindi"/>
    </contour>
    <contour>
      <point x="293" y="635" type="move" name="top.tippi"/>
    </contour>
    <contour>
      <point x="292" y="-142" type="move" name="bottom"/>
    </contour>
  </outline>
</glyph>
<glyph name="grNGA_RAc2" format="1">
  <advance width="564"/>
  <outline>
    <contour>
      <point x="-20" y="580" type="line"/>
      <point x="110" y="580" type="line"/>
      <point x="110" y="412" type="line"/>
      <point x="268" y="412" type="line" smooth="yes"/>
      <point x="385" y="412"/>
      <point x="460" y="351"/>
      <point x="460" y="253" type="curve" smooth="yes"/>
      <point x="460" y="128"/>
      <point x="381" y="66"/>
      <point x="261" y="66" type="curve" smooth="yes"/>
      <point x="161" y="66"/>
      <point x="124" y="119"/>
      <point x="124" y="172" type="curve" smooth="yes"/>
      <point x="124" y="225"/>
      <point x="159" y="256"/>
      <point x="215" y="256" type="curve" smooth="yes"/>
      <point x="280" y="256"/>
      <point x="320" y="215"/>
      <point x="345" y="143" type="curve" smooth="yes"/>
      <point x="414" y="-59" type="line"/>
      <point x="477" y="-59" type="line"/>
      <point x="407" y="143" type="line" smooth="yes"/>
      <point x="371" y="247"/>
      <point x="316" y="313"/>
      <point x="215" y="313" type="curve" smooth="yes"/>
      <point x="121" y="313"/>
      <point x="60" y="256"/>
      <point x="60" y="172" type="curve" smooth="yes"/>
      <point x="60" y="88"/>
      <point x="131" y="9"/>
      <point x="262" y="9" type="curve" smooth="yes"/>
      <point x="411" y="9"/>
      <point x="524" y="95"/>
      <point x="524" y="253" type="curve" smooth="yes"/>
      <point x="524" y="371"/>
      <point x="431" y="467"/>
      <point x="289" y="467" type="curve" smooth="yes"/>
      <point x="172" y="467" type="line"/>
      <point x="172" y="580" type="line"/>
      <point x="584" y="580" type="line"/>
      <point x="584" y="635" type="line"/>
      <point x="-20" y="635" type="line"/>
    </contour>
    <contour>
      <point x="666" y="-209" type="line"/>
      <point x="666" y="-152" type="line"/>
      <point x="464" y="-50" type="line" smooth="yes"/>
      <point x="431" y="-34"/>
      <point x="408" y="-30"/>
      <point x="381" y="-44" type="curve" smooth="yes"/>
      <point x="350" y="-60"/>
      <point x="307" y="-119"/>
      <point x="292" y="-151" type="curve"/>
      <point x="322" y="-184" type="line"/>
      <point x="477" y="-79" type="line"/>
      <point x="415" y="-88" type="line"/>
    </contour>
    <contour>
      <point x="290" y="635" type="move" name="top.addak"/>
    </contour>
    <contour>
      <point x="391" y="635" type="move" name="top"/>
    </contour>
    <contour>
      <point x="290" y="635" type="move" name="top.bindi"/>
    </contour>
    <contour>
      <point x="290" y="635" type="move" name="top.tippi"/>
    </contour>
    <contour>
      <point x="344" y="-142" type="move" name="bottom"/>
    </contour>
  </outline>
</glyph>
<glyph name="grRRA_RAc2" format="1">
  <advance width="509"/>
  <outline>
    <contour>
      <point x="576" y="-249" type="line"/>
      <point x="576" y="-192" type="line"/>
      <point x="374" y="-90" type="line" smooth="yes"/>
      <point x="341" y="-74"/>
      <point x="318" y="-70"/>
      <point x="291" y="-84" type="curve" smooth="yes"/>
      <point x="260" y="-100"/>
      <point x="217" y="-159"/>
      <point x="202" y="-191" type="curve"/>
      <point x="232" y="-224" type="line"/>
      <point x="373" y="-128" type="line"/>
      <point x="325" y="-128" type="line"/>
    </contour>
    <contour>
      <point x="-20" y="580" type="line"/>
      <point x="-20" y="635" type="line"/>
      <point x="529" y="635" type="line"/>
      <point x="529" y="580" type="line"/>
    </contour>
    <contour>
      <point x="397" y="564"/>
      <point x="426" y="536"/>
      <point x="426" y="482" type="curve" smooth="yes"/>
      <point x="426" y="408"/>
      <point x="378" y="353"/>
      <point x="319" y="335" type="curve"/>
      <point x="171" y="338" type="line"/>
      <point x="171" y="372" type="line"/>
      <point x="241" y="372" type="line" smooth="yes"/>
      <point x="337" y="372"/>
      <point x="364" y="422"/>
      <point x="364" y="481" type="curve" smooth="yes"/>
      <point x="364" y="528"/>
      <point x="338" y="561"/>
      <point x="310" y="580" type="curve"/>
      <point x="382" y="580" type="line"/>
    </contour>
    <contour>
      <point x="392" y="341"/>
      <point x="459" y="294"/>
      <point x="459" y="195" type="curve" smooth="yes"/>
      <point x="459" y="97"/>
      <point x="382" y="17"/>
      <point x="241" y="17" type="curve" smooth="yes"/>
      <point x="149" y="17"/>
      <point x="76" y="65"/>
      <point x="30" y="92" type="curve"/>
      <point x="30" y="141" type="line"/>
      <point x="86" y="105"/>
      <point x="168" y="72"/>
      <point x="241" y="72" type="curve" smooth="yes"/>
      <point x="348" y="72"/>
      <point x="397" y="122"/>
      <point x="397" y="198" type="curve" smooth="yes"/>
      <point x="397" y="280"/>
      <point x="337" y="317"/>
      <point x="238" y="317" type="curve" smooth="yes"/>
      <point x="171" y="317" type="line"/>
      <point x="171" y="353" type="line"/>
      <point x="319" y="355" type="line"/>
    </contour>
    <contour>
      <point x="186" y="-62" type="line"/>
      <point x="30" y="87" type="line"/>
      <point x="30" y="116" type="line"/>
      <point x="129" y="64" type="line"/>
      <point x="262" y="-62" type="line"/>
    </contour>
    <contour>
      <point x="372" y="-62" type="line"/>
      <point x="249" y="47" type="line"/>
      <point x="317" y="60" type="line"/>
      <point x="451" y="-62" type="line"/>
    </contour>
    <contour>
      <point x="321" y="635" type="move" name="top.addak"/>
    </contour>
    <contour>
      <point x="321" y="635" type="move" name="top"/>
    </contour>
    <contour>
      <point x="321" y="635" type="move" name="top.bindi"/>
    </contour>
    <contour>
      <point x="321" y="635" type="move" name="top.tippi"/>
    </contour>
    <contour>
      <point x="245" y="-162" type="move" name="bottom"/>
    </contour>
  </outline>
</glyph>
<glyph name="grVA_RAc2" format="1">
  <advance width="515"/>
  <outline>
    <contour>
      <point x="415" y="580" type="line"/>
      <point x="535" y="580" type="line"/>
      <point x="535" y="635" type="line"/>
      <point x="-20" y="635" type="line"/>
      <point x="-20" y="580" type="line"/>
      <point x="353" y="580" type="line"/>
      <point x="353" y="493" type="line"/>
      <point x="234" y="493" type="line" smooth="yes"/>
      <point x="107" y="493"/>
      <point x="40" y="442"/>
      <point x="40" y="356" type="curve" smooth="yes"/>
      <point x="40" y="270"/>
      <point x="115" y="219"/>
      <point x="242" y="219" type="curve" smooth="yes"/>
      <point x="415" y="219" type="line"/>
      <point x="415" y="274" type="line"/>
      <point x="246" y="274" type="line" smooth="yes"/>
      <point x="146" y="274"/>
      <point x="104" y="301"/>
      <point x="104" y="356" type="curve" smooth="yes"/>
      <point x="104" y="411"/>
      <point x="141" y="438"/>
      <point x="241" y="438" type="curve" smooth="yes"/>
      <point x="415" y="438" type="line"/>
    </contour>
    <contour>
      <point x="415" y="57" type="line"/>
      <point x="308" y="57" type="line" smooth="yes"/>
      <point x="236" y="57"/>
      <point x="193" y="88"/>
      <point x="193" y="138" type="curve" smooth="yes"/>
      <point x="193" y="188"/>
      <point x="234" y="218"/>
      <point x="297" y="219" type="curve"/>
      <point x="297" y="264" type="line"/>
      <point x="199" y="264"/>
      <point x="129" y="217"/>
      <point x="129" y="138" type="curve" smooth="yes"/>
      <point x="129" y="55"/>
      <point x="192" y="-1"/>
      <point x="306" y="-1" type="curve" smooth="yes"/>
      <point x="415" y="-1" type="line"/>
    </contour>
    <component base="grRAc2" xOffset="515" yOffset="22"/>
    <contour>
      <point x="384" y="635" type="move" name="top.addak"/>
    </contour>
    <contour>
      <point x="384" y="635" type="move" name="top"/>
    </contour>
    <contour>
      <point x="384" y="635" type="move" name="top.bindi"/>
    </contour>
    <contour>
      <point x="384" y="635" type="move" name="top.tippi"/>
    </contour>
    <contour>
      <point x="260" y="-130" type="move" name="bottom"/>
    </contour>
  </outline>
</glyph>
<glyph name="grmU.alt" format="1">
  <advance width="0"/>
  <outline>
    <contour>
      <point x="-155" y="-342"/>
      <point x="-221" y="-357"/>
      <point x="-287" y="-357" type="curve" smooth="yes"/>
      <point x="-353" y="-357"/>
      <point x="-419" y="-342"/>
      <point x="-471" y="-319" type="curve"/>
      <point x="-471" y="-377" type="line"/>
      <point x="-411" y="-400"/>
      <point x="-352" y="-412"/>
      <point x="-287" y="-412" type="curve" smooth="yes"/>
      <point x="-222" y="-412"/>
      <point x="-167" y="-402"/>
      <point x="-103" y="-377" type="curve"/>
      <point x="-103" y="-319" type="line"/>
    </contour>
    <contour>
      <point x="-287" y="0" type="move" name="_bottom"/>
    </contour>
  </outline>
</glyph>
<glyph name="grmUU.alt2" format="1">
  <advance width="0"/>
  <outline>
    <contour>
      <point x="-152" y="-342"/>
      <point x="-218" y="-357"/>
      <point x="-284" y="-357" type="curve" smooth="yes"/>
      <point x="-350" y="-357"/>
      <point x="-416" y="-342"/>
      <point x="-468" y="-319" type="curve"/>
      <point x="-468" y="-377" type="line"/>
      <point x="-408" y="-400"/>
      <point x="-349" y="-412"/>
      <point x="-284" y="-412" type="curve" smooth="yes"/>
      <point x="-219" y="-412"/>
      <point x="-164" y="-402"/>
      <point x="-100" y="-377" type="curve"/>
      <point x="-100" y="-319" type="line"/>
    </contour>
    <contour>
      <point x="-152" y="-442"/>
      <point x="-218" y="-457"/>
      <point x="-284" y="-457" type="curve" smooth="yes"/>
      <point x="-350" y="-457"/>
      <point x="-416" y="-442"/>
      <point x="-468" y="-419" type="curve"/>
      <point x="-468" y="-477" type="line"/>
      <point x="-408" y="-500"/>
      <point x="-349" y="-512"/>
      <point x="-284" y="-512" type="curve" smooth="yes"/>
      <point x="-219" y="-512"/>
      <point x="-164" y="-502"/>
      <point x="-100" y="-477" type="curve"/>
      <point x="-100" y="-419" type="line"/>
    </contour>
    <contour>
      <point x="-284" y="0" type="move" name="_bottom"/>
    </contour>
  </outline>
</glyph>
